<svg height="448pt" viewBox="0 -108 448 448" width="448pt" xmlns="http://www.w3.org/2000/svg"><path d="m32 208h-16c-8.835938 0-16-7.164062-16-16s7.164062-16 16-16v-8h32v8zm0 0" fill="#b9b9b9"/><path d="m328 96h112c4.417969 0 8 3.582031 8 8v72h-120zm0 0" fill="#6b9777"/><path d="m336 144 32-24h56l24 24v-40c0-4.417969-3.582031-8-8-8h-112v48zm0 0" fill="#85bc94"/><path d="m439.992188 187.992188c0 24.300781-19.699219 44-44 44-24.300782 0-44-19.699219-44-44 0-24.300782 19.699218-44 44-44 24.300781 0 44 19.699218 44 44zm0 0" fill="#787d82"/><path d="m411.992188 187.992188c0 8.835937-7.164063 16-16 16-8.835938 0-16-7.164063-16-16 0-8.835938 7.164062-16 16-16 8.835937 0 16 7.164062 16 16zm0 0" fill="#b9b9b9"/><path d="m336 176h-112v-152h94.769531c9.171875-.328125 16.878907 6.828125 17.230469 16zm0 0" fill="#85bc94"/><path d="m16 104h216v72h-216zm0 0" fill="#6b9777"/><path d="m167.65625 1.527344-7.65625-1.527344-32 8-40-8c-21.070312 5.265625-43.046875 5.789062-64.34375 1.527344l-7.65625-1.527344v112h216v-112c-21.070312 5.265625-43.046875 5.789062-64.34375 1.527344zm0 0" fill="#55785f"/><path d="m160 112h-72v-112l7.65625 1.527344c21.296875 4.261718 43.273438 3.738281 64.34375-1.527344zm0 0" fill="#5e8569"/><path d="m264 56h72v48h-72zm0 0" fill="#a8d6da"/><path d="m232 56h32v48h-32zm0 0" fill="#8aced8"/><path d="m264 104v40l16 32h56v-72zm0 0" fill="#8dc79d"/><path d="m184 136h48v16h-48zm0 0" fill="#5e8569"/><path d="m40 136h16v16h-16zm0 0" fill="#e78244"/><path d="m159.992188 187.992188c0 24.300781-19.699219 44-44 44-24.300782 0-44-19.699219-44-44 0-24.300782 19.699218-44 44-44 24.300781 0 44 19.699218 44 44zm0 0" fill="#787d82"/><path d="m131.992188 187.992188c0 8.835937-7.164063 16-16 16-8.835938 0-16-7.164063-16-16 0-8.835938 7.164062-16 16-16 8.835937 0 16 7.164062 16 16zm0 0" fill="#b9b9b9"/></svg>